{"title":"The.Matrix.1999.BRRip.480p.x264.AAC-VYTO [P2PDL]","uid":12192388,"size":505546429,"categoryP":"video","categoryS":"movies","magnet":"?xt=urn:btih:3b7a0c494299f9634283a4797914158e6ccfdc13&amp;dn=The.Matrix.1999.BRRip.480p.x264.AAC-VYTO+%5BP2PDL%5D&amp;tr=udp%3A%2F%2Ftracker.openbittorrent.com%3A80&amp;tr=udp%3A%2F%2Fopen.demonii.com%3A1337&amp;tr=udp%3A%2F%2Ftracker.coppersurfer.tk%3A6969&amp;tr=udp%3A%2F%2Fexodus.desync.com%3A6969","seeders":4,"leechers":2,"uploader":"ValidusVyto","files":7,"time":1438684193,"description":"____    ____ ____    ____ .___________.  ______   \n     /   /      /   / |           | /  __    \n    /   /      /   /  `---|  |----`|  |  |  | \n        /     _    _/       |  |     |  |  |  | \n       /        |  |         |  |     |  `--'  | \n    __/         |__|         |__|      ______/  \n                                                  \nPresenting Small Encodes with quality for years!\n                                                                                                   \n                                                                                                   \n\nThe.Matrix.1999.BRRip.480p.x264.AAC-VYTO\n\n\nGenre: Action, Sci-Fi  &lt;a href=&quot;\nhttp://www.imdb.com/title/tt0133093/&quot; rel=&quot;nofollow&quot; target=&quot;_NEW&quot;&gt;\nhttp://www.imdb.com/title/tt0133093/&lt;/a&gt;\n\n\nGeneral\nFormat                         : MPEG-4\nFile size                      : 477 MiB\nDuration                       : 2h 16mn\nOverall bit rate               : 489 Kbps\n\nVideo\nFormat                         : AVC\nBit rate                       : 454 Kbps\nWidth                          : 720 pixels\nHeight                         : 304 pixels\nDisplay aspect ratio           : 2.35:1\nFrame rate mode                : Constant\nFrame rate                     : 23.976 fps\nBit depth                      : 8 bits\nStream size                    : 443 MiB (93%)\nWriting library                : x264 core 146 r2538 121396c\n\nAudio\nFormat                         : AAC\nBit rate mode                  : Variable\nBit rate                       : 32.0 Kbps\nChannel(s)                     : 2 channels\nChannel positions              : Front: L R \nSampling rate                  : 48.0 KHz \nStream size                    : 31.2 MiB (7%)\nLanguage                       : English\n\nSubtitle                       : Yes\nSource                     \t   : 720p.BluRay.x264-CtrlHD\t\t\t\n\n\nScreenshots:\n &lt;a href=&quot;\nhttp://ititli.com/wt&quot; rel=&quot;nofollow&quot; target=&quot;_NEW&quot;&gt;\nhttp://ititli.com/wt&lt;/a&gt; &lt;a href=&quot;\nhttp://ititli.com/wL&quot; rel=&quot;nofollow&quot; target=&quot;_NEW&quot;&gt;\nhttp://ititli.com/wL&lt;/a&gt; &lt;a href=&quot;\nhttp://ititli.com/wd&quot; rel=&quot;nofollow&quot; target=&quot;_NEW&quot;&gt;\nhttp://ititli.com/wd&lt;/a&gt; &lt;a href=&quot;\nhttp://ititli.com/w0&quot; rel=&quot;nofollow&quot; target=&quot;_NEW&quot;&gt;\nhttp://ititli.com/w0&lt;/a&gt; &lt;a href=&quot;\nhttp://ititli.com/wA&quot; rel=&quot;nofollow&quot; target=&quot;_NEW&quot;&gt;\nhttp://ititli.com/wA&lt;/a&gt; &lt;a href=&quot;\nhttp://ititli.com/wl&quot; rel=&quot;nofollow&quot; target=&quot;_NEW&quot;&gt;\nhttp://ititli.com/wl&lt;/a&gt; &lt;a href=&quot;\nhttp://ititli.com/wm&quot; rel=&quot;nofollow&quot; target=&quot;_NEW&quot;&gt;\nhttp://ititli.com/wm&lt;/a&gt; &lt;a href=&quot;\nhttp://ititli.com/wx&quot; rel=&quot;nofollow&quot; target=&quot;_NEW&quot;&gt;\nhttp://ititli.com/wx&lt;/a&gt; &lt;a href=&quot;\nhttp://ititli.com/w7&quot; rel=&quot;nofollow&quot; target=&quot;_NEW&quot;&gt;\nhttp://ititli.com/w7&lt;/a&gt; &lt;a href=&quot;\nhttp://ititli.com/wC&quot; rel=&quot;nofollow&quot; target=&quot;_NEW&quot;&gt;\nhttp://ititli.com/wC&lt;/a&gt; &lt;a href=&quot;\nhttp://ititli.com/wF&quot; rel=&quot;nofollow&quot; target=&quot;_NEW&quot;&gt;\nhttp://ititli.com/wF&lt;/a&gt; &lt;a href=&quot;\nhttp://ititli.com/wJ&quot; rel=&quot;nofollow&quot; target=&quot;_NEW&quot;&gt;\nhttp://ititli.com/wJ&lt;/a&gt;\n\n----------------------------------------------------------------------------------------------------\n\n\nEncoder Notes: Looking For Early Access To Anything You Can Provide DVDScr, R5, DVDR, BluRay, Direct\nAudio, Music Releases and Seedboxes. If You Got anything to offer please contact us.\n\nSupport us by donating BC - 1FgwdzPsd1y25Gea8wP1qni35uGCtmkRCD","torrent":{"xt":"urn:btih:3b7a0c494299f9634283a4797914158e6ccfdc13","amp;dn":"The.Matrix.1999.BRRip.480p.x264.AAC-VYTO+%5BP2PDL%5D","amp;tr":["udp%3A%2F%2Ftracker.openbittorrent.com%3A80","udp%3A%2F%2Fopen.demonii.com%3A1337","udp%3A%2F%2Ftracker.coppersurfer.tk%3A6969","udp%3A%2F%2Fexodus.desync.com%3A6969"],"infoHash":"3b7a0c494299f9634283a4797914158e6ccfdc13","infoHashBuffer":{"type":"Buffer","data":[59,122,12,73,66,153,249,99,66,131,164,121,121,20,21,142,108,207,220,19]},"announce":[],"urlList":[]}}